<svg width="100" height="19" viewBox="0 0 100 19" fill="none" xmlns="http://www.w3.org/2000/svg">
<path stroke="#000000" stroke-width="0.3" d="M89.739 0.945195C89.9201 0.565634 90.4604 0.565634 90.6415 0.945195L92.717 5.29475C92.7899 5.44751 92.9352 5.55302 93.103 5.57514L97.881 6.20497C98.298 6.25994 98.4649 6.77377 98.1599 7.06332L94.6646 10.3813C94.5418 10.4979 94.4864 10.6686 94.5172 10.835L95.3947 15.5738C95.4712 15.9873 95.0341 16.3049 94.6645 16.1043L90.4288 13.8054C90.28 13.7246 90.1005 13.7246 89.9518 13.8054L85.716 16.1043C85.3464 16.3049 84.9093 15.9873 84.9859 15.5738L85.8634 10.835C85.8942 10.6686 85.8387 10.4979 85.716 10.3813L82.2207 7.06332C81.9157 6.77377 82.0826 6.25994 82.4996 6.20497L87.2776 5.57514C87.4454 5.55302 87.5906 5.44751 87.6635 5.29475L89.739 0.945195Z" fill="url(#paint0_linear_2_340)"/>
<path stroke="#000000" stroke-width="0.3" d="M9.42746 0.906491C9.61096 0.535199 10.1404 0.535199 10.3239 0.906491L12.4948 5.29909C12.5691 5.44934 12.7137 5.55239 12.88 5.57355L17.8475 6.20579C18.2698 6.25954 18.4361 6.78276 18.1222 7.07039L14.5117 10.3795C14.3838 10.4968 14.3259 10.6719 14.3585 10.8423L15.2683 15.5858C15.3471 15.997 14.9159 16.3172 14.5451 16.1228L10.1078 13.7976C9.96244 13.7214 9.78897 13.7214 9.64362 13.7976L5.20628 16.1228C4.83546 16.3172 4.40429 15.997 4.48315 15.5858L5.39287 10.8423C5.42555 10.6719 5.36756 10.4968 5.23966 10.3795L1.62918 7.07039C1.31536 6.78276 1.4816 6.25954 1.90389 6.20579L6.87144 5.57355C7.0377 5.55239 7.1823 5.44934 7.25656 5.29909L9.42746 0.906491Z" fill="url(#paint1_linear_2_340)"/>
<path stroke="#000000" stroke-width="0.3" d="M29.4211 0.945195C29.6022 0.565634 30.1425 0.565634 30.3236 0.945195L32.3992 5.29475C32.472 5.44751 32.6173 5.55302 32.7851 5.57514L37.5631 6.20497C37.9801 6.25994 38.147 6.77377 37.842 7.06332L34.3467 10.3813C34.2239 10.4979 34.1685 10.6686 34.1993 10.835L35.0768 15.5738C35.1533 15.9873 34.7163 16.3049 34.3466 16.1043L30.1109 13.8054C29.9621 13.7246 29.7826 13.7246 29.6339 13.8054L25.3982 16.1043C25.0285 16.3049 24.5914 15.9873 24.668 15.5738L25.5455 10.835C25.5763 10.6686 25.5208 10.4979 25.3981 10.3813L21.9028 7.06332C21.5978 6.77377 21.7647 6.25994 22.1817 6.20497L26.9597 5.57514C27.1275 5.55302 27.2727 5.44751 27.3456 5.29475L29.4211 0.945195Z" fill="url(#paint2_linear_2_340)"/>
<path stroke="#000000" stroke-width="0.3" d="M69.7453 0.906491C69.9288 0.535199 70.4583 0.535199 70.6418 0.906491L72.8127 5.29909C72.887 5.44934 73.0316 5.55239 73.1979 5.57355L78.1654 6.20579C78.5877 6.25954 78.7539 6.78276 78.4401 7.07039L74.8296 10.3795C74.7017 10.4968 74.6437 10.6719 74.6764 10.8423L75.5861 15.5858C75.665 15.997 75.2338 16.3172 74.863 16.1228L70.4257 13.7976C70.2803 13.7214 70.1069 13.7214 69.9615 13.7976L65.5242 16.1228C65.1533 16.3172 64.7222 15.997 64.801 15.5858L65.7108 10.8423C65.7434 10.6719 65.6854 10.4968 65.5575 10.3795L61.9471 7.07039C61.6332 6.78276 61.7995 6.25954 62.2218 6.20579L67.1893 5.57355C67.3556 5.55239 67.5002 5.44934 67.5744 5.29909L69.7453 0.906491Z" fill="url(#paint3_linear_2_340)"/>
<path stroke="#000000" stroke-width="0.3" d="M49.4208 0.906491C49.6043 0.535199 50.1338 0.535199 50.3173 0.906491L52.4882 5.29909C52.5625 5.44934 52.7071 5.55239 52.8733 5.57355L57.8409 6.20579C58.2632 6.25954 58.4294 6.78276 58.1156 7.07039L54.5051 10.3795C54.3772 10.4968 54.3192 10.6719 54.3519 10.8423L55.2616 15.5858C55.3405 15.997 54.9093 16.3172 54.5385 16.1228L50.1012 13.7976C49.9558 13.7214 49.7823 13.7214 49.637 13.7976L45.1997 16.1228C44.8288 16.3172 44.3977 15.997 44.4765 15.5858L45.3862 10.8423C45.4189 10.6719 45.3609 10.4968 45.233 10.3795L41.6226 7.07039C41.3087 6.78276 41.475 6.25954 41.8973 6.20579L46.8648 5.57355C47.0311 5.55239 47.1757 5.44934 47.2499 5.29909L49.4208 0.906491Z" fill="url(#paint4_linear_2_340)"/>
<defs>
<linearGradient id="paint0_linear_2_340" x1="90.1903" y1="-0.000488281" x2="90.1903" y2="18.3571" gradientUnits="userSpaceOnUse">
<stop offset="0.0985536" stop-color="#ffffff"/>
<stop offset="0.788912" stop-color="#ffffff"/>
</linearGradient>
<linearGradient id="paint1_linear_2_340" x1="9.8757" y1="-0.000488281" x2="9.8757" y2="18.3571" gradientUnits="userSpaceOnUse">
<stop offset="0.0985536" stop-color="#FFc112"/>
<stop offset="0.788912" stop-color="#FFc112"/>
</linearGradient>
<linearGradient id="paint2_linear_2_340" x1="29.8724" y1="-0.000488281" x2="29.8724" y2="18.3571" gradientUnits="userSpaceOnUse">
<stop offset="0.0985536" stop-color="#ffffff"/>
<stop offset="0.788912" stop-color="#ffffff"/>
</linearGradient>
<linearGradient id="paint3_linear_2_340" x1="70.1936" y1="-0.000488281" x2="70.1936" y2="18.3571" gradientUnits="userSpaceOnUse">
<stop offset="0.0985536" stop-color="#ffffff"/>
<stop offset="0.788912" stop-color="#ffffff"/>
</linearGradient>
<linearGradient id="paint4_linear_2_340" x1="49.8691" y1="-0.000488281" x2="49.8691" y2="18.3571" gradientUnits="userSpaceOnUse">
<stop offset="0.0985536" stop-color="#ffffff"/>
<stop offset="0.788912" stop-color="#ffffff"/>
</linearGradient>
</defs>
</svg>
