<svg width="103" height="33" viewBox="0 0 103 33" fill="none" xmlns="http://www.w3.org/2000/svg">
<path d="M43.75 23.0002L40.786 18.5282L38.16 23.0002H34.26L38.966 15.7722L34.208 8.59621H38.316L41.254 13.0422L43.906 8.59621H47.806L43.074 15.7722L47.858 23.0002H43.75Z" fill="#292929"/>
<path d="M52.9811 6.88021C52.3397 6.88021 51.8024 6.68088 51.3691 6.28221C50.9531 5.86621 50.7451 5.35488 50.7451 4.74821C50.7451 4.14154 50.9531 3.63888 51.3691 3.24021C51.8024 2.82421 52.3397 2.61621 52.9811 2.61621C53.6224 2.61621 54.1511 2.82421 54.5671 3.24021C55.0004 3.63888 55.2171 4.14154 55.2171 4.74821C55.2171 5.35488 55.0004 5.86621 54.5671 6.28221C54.1511 6.68088 53.6224 6.88021 52.9811 6.88021ZM54.7751 8.59621V23.0002H51.1351V8.59621H54.7751Z" fill="#292929"/>
<path d="M73.0614 15.4862C73.0614 16.0062 73.0267 16.4742 72.9574 16.8902H62.4274C62.514 17.9302 62.878 18.7449 63.5194 19.3342C64.1607 19.9235 64.9494 20.2182 65.8854 20.2182C67.2374 20.2182 68.1994 19.6375 68.7714 18.4762H72.6974C72.2814 19.8629 71.484 21.0069 70.3054 21.9082C69.1267 22.7922 67.6794 23.2342 65.9634 23.2342C64.5767 23.2342 63.3287 22.9309 62.2194 22.3242C61.1274 21.7002 60.2694 20.8249 59.6454 19.6982C59.0387 18.5715 58.7354 17.2715 58.7354 15.7982C58.7354 14.3075 59.0387 12.9989 59.6454 11.8722C60.252 10.7455 61.1014 9.87888 62.1934 9.27221C63.2854 8.66554 64.542 8.36221 65.9634 8.36221C67.3327 8.36221 68.5547 8.65688 69.6294 9.24621C70.7214 9.83554 71.562 10.6762 72.1514 11.7682C72.758 12.8429 73.0614 14.0822 73.0614 15.4862ZM69.2914 14.4462C69.274 13.5102 68.9361 12.7649 68.2774 12.2102C67.6187 11.6382 66.8127 11.3522 65.8594 11.3522C64.958 11.3522 64.1954 11.6295 63.5714 12.1842C62.9647 12.7215 62.592 13.4755 62.4534 14.4462H69.2914Z" fill="#292929"/>
<path d="M80.6583 10.8322C81.1263 10.0695 81.7329 9.47154 82.4783 9.03821C83.2409 8.60488 84.1076 8.38821 85.0783 8.38821V12.2102H84.1163C82.9723 12.2102 82.1056 12.4789 81.5163 13.0162C80.9443 13.5535 80.6583 14.4895 80.6583 15.8242V23.0002H77.0183V8.59621H80.6583V10.8322Z" fill="#292929"/>
<path d="M87.894 15.7462C87.894 14.2902 88.18 12.9989 88.752 11.8722C89.3413 10.7455 90.13 9.87888 91.118 9.27221C92.1233 8.66554 93.2413 8.36221 94.472 8.36221C95.5466 8.36221 96.4826 8.57888 97.28 9.01221C98.0946 9.44554 98.7446 9.99154 99.23 10.6502V8.59621H102.896V23.0002H99.23V20.8942C98.762 21.5702 98.112 22.1335 97.28 22.5842C96.4653 23.0175 95.5206 23.2342 94.446 23.2342C93.2326 23.2342 92.1233 22.9222 91.118 22.2982C90.13 21.6742 89.3413 20.7989 88.752 19.6722C88.18 18.5282 87.894 17.2195 87.894 15.7462ZM99.23 15.7982C99.23 14.9142 99.0566 14.1602 98.71 13.5362C98.3633 12.8949 97.8953 12.4095 97.306 12.0802C96.7166 11.7335 96.084 11.5602 95.408 11.5602C94.732 11.5602 94.108 11.7249 93.536 12.0542C92.964 12.3835 92.496 12.8689 92.132 13.5102C91.7853 14.1342 91.612 14.8795 91.612 15.7462C91.612 16.6129 91.7853 17.3755 92.132 18.0342C92.496 18.6755 92.964 19.1695 93.536 19.5162C94.1253 19.8629 94.7493 20.0362 95.408 20.0362C96.084 20.0362 96.7166 19.8715 97.306 19.5422C97.8953 19.1955 98.3633 18.7102 98.71 18.0862C99.0566 17.4449 99.23 16.6822 99.23 15.7982Z" fill="#292929"/>
<path fill-rule="evenodd" clip-rule="evenodd" d="M15.9402 2.90652C15.5674 2.3845 14.8599 2.22949 14.3029 2.54776L2.84277 9.09641C2.46578 9.31182 2.22759 9.70744 2.21359 10.1414L1.78777 23.3419C1.77307 23.7976 2.00763 24.2252 2.39986 24.4576L13.8949 31.2695C14.2771 31.496 14.7508 31.5026 15.1392 31.2868L26.6459 24.8942C27.0297 24.681 27.2735 24.282 27.2882 23.8431L27.7215 10.8421C27.7331 10.4964 27.6008 10.1613 27.3561 9.91662L26.5175 9.07805C26.1285 8.68902 25.5309 8.60009 25.0454 8.85899L23.75 9.54987V19.9814C23.75 20.8613 23.329 21.688 22.6175 22.2055L15.3466 27.4933C13.6035 28.7611 11.1459 27.6219 10.9867 25.4725L10.8464 23.5782L9.77208 24.1387C7.94122 25.0939 5.75002 23.7656 5.75002 21.7005V13.6458C5.75002 12.6698 6.26732 11.7669 7.10929 11.2733L17.25 5.32878V5.1408C17.25 4.88027 17.1686 4.62626 17.0172 4.41426L15.9402 2.90652ZM18.673 4.49461C18.5907 4.15419 18.4437 3.83064 18.2378 3.5424L17.1608 2.03466C16.3405 0.886232 14.784 0.545192 13.5587 1.2454L2.09856 7.79404C1.26919 8.26796 0.745166 9.13832 0.714369 10.093L0.288545 23.2936C0.256206 24.2961 0.772258 25.2367 1.63516 25.748L13.1302 32.5599C13.9711 33.0582 15.0132 33.0727 15.8677 32.598L27.3744 26.2054C28.2188 25.7363 28.7551 24.8585 28.7873 23.8931L29.2207 10.8921C29.2461 10.1314 28.955 9.39417 28.4168 8.85596L27.5782 8.01739C26.7223 7.16153 25.4075 6.96588 24.3395 7.53546L23.75 7.84987V7.60542C23.75 7.06251 23.5893 6.53173 23.2882 6.08L22.6711 5.15446C21.8629 3.94209 20.2493 3.57059 18.9923 4.30747L18.673 4.49461ZM17.25 7.06751L7.86787 12.5674C7.48516 12.7917 7.25002 13.2021 7.25002 13.6458V21.7005C7.25002 22.6392 8.24602 23.243 9.07823 22.8088L10.7257 21.9492L10.3483 16.8546C10.2679 15.7686 10.8358 14.7374 11.7967 14.225L17.25 11.3165V7.06751ZM18.75 10.5165V6.1882L19.7508 5.60151C20.3222 5.26657 21.0557 5.43543 21.4231 5.98651L22.0401 6.91205C22.177 7.11738 22.25 7.35864 22.25 7.60542V8.64987L18.75 10.5165ZM17.25 13.0165L12.5026 15.5485C12.0658 15.7814 11.8077 16.2502 11.8442 16.7438L12.1738 21.1937L16.5782 18.8957C16.9911 18.6803 17.25 18.2532 17.25 17.7875V13.0165ZM12.2945 22.8226L17.2721 20.2256C18.1804 19.7517 18.75 18.8121 18.75 17.7875V12.2165L22.25 10.3499V19.9814C22.25 20.3813 22.0587 20.7571 21.7352 20.9923L14.4644 26.2802C13.6721 26.8565 12.555 26.3387 12.4826 25.3617L12.2945 22.8226Z" fill="#FF764A"/>
</svg>
