<svg width="18" height="17" viewBox="0 0 18 17" fill="none" xmlns="http://www.w3.org/2000/svg">
<path d="M8.42746 0.906491C8.61096 0.535199 9.14045 0.535199 9.32395 0.906491L11.4948 5.29909C11.5691 5.44934 11.7137 5.55239 11.88 5.57355L16.8475 6.20579C17.2698 6.25954 17.4361 6.78276 17.1222 7.07039L13.5117 10.3795C13.3838 10.4968 13.3259 10.6719 13.3585 10.8423L14.2683 15.5858C14.3471 15.997 13.9159 16.3172 13.5451 16.1228L9.10778 13.7976C8.96244 13.7214 8.78897 13.7214 8.64362 13.7976L4.20628 16.1228C3.83546 16.3172 3.40429 15.997 3.48315 15.5858L4.39287 10.8423C4.42555 10.6719 4.36756 10.4968 4.23966 10.3795L0.629179 7.07039C0.315355 6.78276 0.481598 6.25954 0.903888 6.20579L5.87144 5.57355C6.0377 5.55239 6.1823 5.44934 6.25656 5.29909L8.42746 0.906491Z" fill="url(#paint0_linear_2_342)"/>
<defs>
<linearGradient id="paint0_linear_2_342" x1="8.8757" y1="-0.000488281" x2="8.8757" y2="18.3571" gradientUnits="userSpaceOnUse">
<stop offset="0.0985536" stop-color="#FFA364"/>
<stop offset="0.788912" stop-color="#FFC112"/>
</linearGradient>
</defs>
</svg>
