<svg width="32" height="32" viewBox="0 0 32 32" fill="none" xmlns="http://www.w3.org/2000/svg">
<rect y="-0.000244141" width="32" height="32" rx="4" fill="#F8F7FE"/>
<path d="M13.4022 21.9998C18.6855 21.9998 21.5747 17.3835 21.5747 13.3804C21.5747 13.2493 21.5721 13.1188 21.5666 12.9888C22.1287 12.5598 22.6139 12.0286 22.9993 11.4201C22.4847 11.6614 21.9308 11.8239 21.3499 11.8971C21.9429 11.522 22.3981 10.9288 22.6129 10.2215C22.0491 10.5743 21.4322 10.823 20.789 10.9569C20.2649 10.368 19.5187 9.99976 18.6924 9.99976C17.1062 9.99976 15.8199 11.3564 15.8199 13.0287C15.8199 13.2664 15.8451 13.4977 15.8944 13.7195C13.5071 13.5928 11.3903 12.3873 9.97358 10.5543C9.71843 11.0166 9.58421 11.5421 9.58464 12.077C9.58464 13.128 10.0917 14.0558 10.8629 14.5986C10.4067 14.5839 9.96062 14.454 9.562 14.2197C9.56158 14.2324 9.56158 14.2448 9.56158 14.2584C9.56158 15.7255 10.5517 16.9504 11.866 17.228C11.6191 17.2989 11.3644 17.3348 11.1086 17.3346C10.9274 17.3345 10.7466 17.3162 10.5687 17.28C10.9344 18.4836 11.9948 19.3595 13.2519 19.384C12.2688 20.1967 11.0304 20.6807 9.68447 20.6807C9.45291 20.6807 9.22417 20.6669 8.99933 20.6388C10.2705 21.4982 11.78 21.9996 13.4023 21.9996" fill="#292929"/>
</svg>
