<svg width="36" height="19" viewBox="0 0 36 19" fill="none" xmlns="http://www.w3.org/2000/svg">
<path d="M10.7119 10.065L14.2061 0H11.8964L10.2974 4.36784L10.6527 0H8.22456L4.73038 10.065H6.98087L8.69835 5.19077L8.40223 9.93843L10.7119 10.065ZM13.4362 10.065L16.9304 0H14.7391L11.1857 10.065H13.4362ZM19.7731 9.43201L19.6547 4.36784L22.9712 0.253208L19.7731 9.43201ZM35.8819 5.88709L24.6294 8.9889L24.9256 8.03936H22.5566L23.3265 5.63388H25.3401L25.9324 3.79812L23.9188 3.92473L24.6294 1.89906H26.5838L27.2353 0.0633021H20.8984L18.5887 2.9752L19.7139 0H17.4634L13.9692 10.065H16.2789L17.7595 5.76049V10.065H20.7207L10.1197 13.0402C9.01419 13.3778 8.02711 13.5256 7.15854 13.4833C6.28991 13.4411 5.61873 13.1879 5.14495 12.7237C4.07892 11.8797 3.7038 10.5925 4.0197 8.86229C4.21709 7.72285 4.65138 6.62564 5.32262 5.57058C3.74331 7.34304 2.57856 8.84121 1.82844 10.065C0.999309 11.3733 0.466298 12.6604 0.229404 13.9265C-0.00748931 15.1925 0.130679 16.2264 0.643968 17.0283C2.02583 19.476 5.04622 19.6447 9.70515 17.5347L35.8819 5.88709Z" fill="black"/>
</svg>
