<svg width="32" height="32" viewBox="0 0 32 32" fill="none" xmlns="http://www.w3.org/2000/svg">
<rect y="-0.000244141" width="32" height="32" rx="4" fill="#F8F7FE"/>
<path fill-rule="evenodd" clip-rule="evenodd" d="M10.8183 6.6665C10.7842 6.6665 10.7503 6.66693 10.7164 6.66778H21.3511C21.3172 6.66693 21.2833 6.6665 21.2492 6.6665H10.8183ZM21.2788 25.3331H10.7887C10.7986 25.3331 10.8084 25.3332 10.8183 25.3332H21.2492C21.2591 25.3332 21.2689 25.3331 21.2788 25.3331ZM19.7914 22.5718H22.5223L22.5235 17.6853C22.5235 15.2865 22.0131 13.4425 19.2453 13.4425C18.7259 13.423 18.2111 13.5465 17.7556 13.7999C17.3001 14.0533 16.921 14.427 16.6586 14.8814H16.6219V13.6641H14.0002V22.5715H16.7311V18.165C16.7311 17.0031 16.9488 15.8777 18.3711 15.8777C19.7732 15.8777 19.7914 17.2073 19.7914 18.2402V22.5718ZM10.0384 12.1762C10.299 12.3525 10.6054 12.4466 10.9189 12.4465C11.127 12.4465 11.3331 12.4049 11.5253 12.3242C11.7176 12.2435 11.8923 12.1253 12.0394 11.9762C12.1865 11.8271 12.3032 11.6501 12.3828 11.4554C12.4625 11.2606 12.5034 11.0519 12.5034 10.8411C12.5033 10.5237 12.4103 10.2134 12.2361 9.94944C12.0619 9.68551 11.8144 9.47983 11.5248 9.3584C11.2352 9.23696 10.9166 9.20524 10.6092 9.26722C10.3017 9.32921 10.0194 9.48213 9.7978 9.70665C9.57621 9.93117 9.42532 10.2172 9.36423 10.5286C9.30313 10.8399 9.33458 11.1627 9.45458 11.4559C9.57457 11.7492 9.77774 11.9998 10.0384 12.1762ZM9.5506 22.5718H12.2843V13.6641H9.5506V22.5718Z" fill="#292929"/>
</svg>
